<svg data-v-423bf9ae="" xmlns="http://www.w3.org/2000/svg" viewBox="0 0 563 108" class="iconLeft"><!----><!----><!----><g data-v-423bf9ae="" id="6382c6fe-8865-4d7d-b7c9-e61511a77d49" fill="#FFFFFF" transform="matrix(5.970149706951518,0,0,5.970149706951518,118.97674913381374,1.6088603585636037)"><path d="M9.41 4.36L7.52 4.36L7.52 8.09L3.27 8.09L3.27 4.36L1.37 4.36L1.37 13.52L3.27 13.52L3.27 9.80L7.52 9.80L7.52 13.52L9.41 13.52ZM18.12 9.87C18.12 7.86 16.90 6.44 14.86 6.44C12.84 6.44 11.36 8.13 11.36 10.14C11.36 12.22 13.03 13.73 15.07 13.73C16.12 13.73 16.86 13.38 17.24 13.10L17.24 11.53C16.82 11.80 16.15 12.15 15.13 12.15C14.08 12.15 13.30 11.54 13.11 10.60L18.12 10.60ZM13.14 9.46C13.34 8.54 13.95 7.96 14.82 7.96C15.61 7.96 16.38 8.46 16.45 9.46ZM22.44 6.44C20.66 6.44 19.22 7.81 19.22 10.12C19.22 12.41 20.66 13.73 22.31 13.73C23.34 13.73 24.12 13.10 24.53 12.36L24.53 13.52L26.26 13.52L26.26 6.62L24.53 6.62L24.53 7.40C24.01 6.82 23.19 6.44 22.44 6.44ZM22.79 8.13C23.46 8.13 24.04 8.48 24.53 9.00L24.53 9.98C24.54 11.22 23.67 11.99 22.75 11.99C21.71 11.99 21.03 11.16 21.03 10.12C21.03 9.08 21.71 8.13 22.79 8.13ZM30.13 13.52L30.13 3.68L28.40 3.68L28.40 13.52ZM34.75 6.62L34.75 4.61L33.87 4.61C33.43 6.02 32.66 6.86 31.77 7.18L31.77 8.07L33.02 8.07L33.02 11.50C33.02 12.88 33.88 13.73 35.11 13.73C35.90 13.73 36.39 13.45 36.74 13.11L36.74 11.73C36.42 11.92 36.09 12.04 35.60 12.04C35.04 12.04 34.75 11.66 34.75 11.05L34.75 8.07L36.67 8.07L36.67 6.62ZM42.34 6.44C41.41 6.44 40.67 7.04 40.25 7.60L40.25 3.68L38.51 3.68L38.51 13.52L40.25 13.52L40.25 9.15C40.65 8.60 41.19 8.13 41.81 8.13C42.59 8.13 43.07 8.59 43.07 9.52L43.08 13.52L44.82 13.52L44.82 9.28C44.82 7.40 43.75 6.44 42.34 6.44ZM49.96 6.44C47.88 6.44 46.33 8.16 46.33 10.10C46.33 12.04 47.88 13.73 49.96 13.73C50.98 13.73 51.61 13.36 51.99 13.03L51.99 11.44C51.52 11.79 50.96 12.04 50.11 12.04C48.99 12.04 48.18 11.22 48.18 10.10C48.18 8.98 49.05 8.15 50.11 8.15C50.96 8.15 51.52 8.42 51.99 8.76L51.99 7.16C51.61 6.85 50.98 6.44 49.96 6.44ZM56.27 6.44C54.50 6.44 53.06 7.81 53.06 10.12C53.06 12.41 54.50 13.73 56.15 13.73C57.18 13.73 57.96 13.10 58.37 12.36L58.37 13.52L60.10 13.52L60.10 6.62L58.37 6.62L58.37 7.40C57.85 6.82 57.03 6.44 56.27 6.44ZM56.63 8.13C57.30 8.13 57.87 8.48 58.37 9.00L58.37 9.98C58.38 11.22 57.50 11.99 56.59 11.99C55.55 11.99 54.87 11.16 54.87 10.12C54.87 9.08 55.55 8.13 56.63 8.13ZM65.91 6.48C65.09 6.48 64.45 7.10 63.97 7.92L63.97 6.62L62.23 6.62L62.23 13.52L63.97 13.52L63.97 9.67C64.38 8.90 64.87 8.31 65.67 8.31C66.08 8.31 66.42 8.44 66.73 8.65L66.73 6.67C66.49 6.55 66.23 6.48 65.91 6.48ZM74.35 9.87C74.35 7.86 73.13 6.44 71.09 6.44C69.07 6.44 67.59 8.13 67.59 10.14C67.59 12.22 69.26 13.73 71.30 13.73C72.35 13.73 73.09 13.38 73.47 13.10L73.47 11.53C73.05 11.80 72.38 12.15 71.37 12.15C70.31 12.15 69.54 11.54 69.34 10.60L74.35 10.60ZM69.37 9.46C69.58 8.54 70.18 7.96 71.05 7.96C71.85 7.96 72.61 8.46 72.68 9.46Z"></path></g><!----><g data-v-423bf9ae="" id="9b9e50a1-2c4e-4fc6-940a-5dfb31d5f122" transform="matrix(1.0911666870117187,0,0,1.0911666870117187,-0.6992655384119644,-0.6603339291486918)" stroke="none" fill="#E2531E"><path d="M50.433.892C23.314.892 1.331 22.875 1.331 49.994s21.983 49.103 49.102 49.103 49.101-21.984 49.101-49.103S77.552.892 50.433.892zm0 92.366c-23.895 0-43.264-19.371-43.264-43.265 0-23.894 19.37-43.264 43.264-43.264 23.894 0 43.263 19.37 43.263 43.264 0 23.894-19.369 43.265-43.263 43.265z"></path><path d="M78 50.964A6.964 6.964 0 0 0 71.036 44H27.964A6.964 6.964 0 0 0 21 50.964v.072A6.964 6.964 0 0 0 27.964 58h43.072A6.964 6.964 0 0 0 78 51.036v-.072z"></path><path d="M57 28.964A6.964 6.964 0 0 0 50.036 22h-.071A6.964 6.964 0 0 0 43 28.964v43.071A6.964 6.964 0 0 0 49.964 79h.071A6.965 6.965 0 0 0 57 72.035V28.964z"></path></g><!----></svg>